# xmcd CD database file
#
# Track frame offsets:
#	150
#	7067
#	23135
#	38612
#	67935
#	88320
#	117200
#	136060
#	152142
#	171457
#	195202
#	211660
#
# Disc length: 3169 seconds
#
# Revision: 6
# Processed by: cddbd v1.5.2PL0 Copyright (c) Steve Scherf et al.
# Submitted via: CDex 1.70beta2
#
DISCID=940c5f0c
DTITLE=Rob Rock - RAGE OF CREATION
DYEAR=2000
DGENRE=Melodic Power Metal
TTITLE0=In the Beginning
TTITLE1=The Sun Will Rise Again
TTITLE2=One Way Out
TTITLE3=Judgment Day
TTITLE4=Streets of Madness
TTITLE5=Eagle
TTITLE6=Beautiful Lady
TTITLE7=All I Need
TTITLE8=Media Machine
TTITLE9=In the Night
TTITLE10=Never Too Late
TTITLE11=Forever
EXTD=YEAR: 2000
EXTT0=
EXTT1=
EXTT2=
EXTT3=
EXTT4=
EXTT5=
EXTT6=
EXTT7=
EXTT8=
EXTT9=
EXTT10=
EXTT11=
PLAYORDER=
